<svg xmlns="http://www.w3.org/2000/svg" viewBox="0 0 24 24" id="filter">
  <defs>
    <linearGradient id="a" x1="4.47" x2="19.53" y1="19.53" y2="4.47" gradientUnits="userSpaceOnUse">
      <stop offset="0" stop-color="#5433ff"></stop>
      <stop offset="1" stop-color="#20bdff"></stop>
    </linearGradient>
  </defs>
  <path fill="url(#a)" d="m3,7.75h2.326c.349,1.709,1.863,3,3.674,3s3.326-1.291,3.674-3h8.326c.414,0,.75-.336.75-.75s-.336-.75-.75-.75h-8.326c-.349-1.709-1.863-3-3.674-3s-3.326,1.291-3.674,3h-2.326c-.414,0-.75.336-.75.75s.336.75.75.75Zm6-3c1.241,0,2.25,1.01,2.25,2.25s-1.009,2.25-2.25,2.25-2.25-1.01-2.25-2.25,1.009-2.25,2.25-2.25Zm12,11.5h-2.326c-.349-1.709-1.863-3-3.674-3s-3.326,1.291-3.674,3H3c-.414,0-.75.336-.75.75s.336.75.75.75h8.326c.349,1.709,1.863,3,3.674,3s3.326-1.291,3.674-3h2.326c.414,0,.75-.336.75-.75s-.336-.75-.75-.75Zm-6,3c-1.241,0-2.25-1.01-2.25-2.25s1.009-2.25,2.25-2.25,2.25,1.01,2.25,2.25-1.009,2.25-2.25,2.25Z"></path>
</svg>
